<svg id="Capa_1" enable-background="new 0 0 512 512" height="512" viewBox="0 0 512 512" width="512" xmlns="http://www.w3.org/2000/svg"><g><g fill="#fdc5ca"><path d="m200 320c15.191 30.394 15.998 65.988 2.2 97.04l-10.2 22.96h-40l-13.82-124.42c-2.15-19.343 7.176-38.164 23.87-48.17 1.654-.996 3.368-1.891 5.13-2.68 4.101-1.85 8.434-3.135 12.88-3.82l15.67-2.41 60.49-9.3 7.78-1.2 32 72z"/><path d="m411 248h-83l-2.73-1.95-13.21-9.43-10.12-7.24-13.21-9.43-16.73-11.95c-4.778 4.777-12.077 5.962-18.12 2.94l-5.88-2.94-.76 5.29c-4.74 33.2-18.29 64.522-39.24 90.71-26.307.003-52.252-6.123-75.78-17.89l-12.22-6.11-8-16 25.23-8.41c15.081-5.027 30.873-7.59 46.77-7.59h.37c-12.198-15.366-10.934-37.438 2.94-51.31l4.69-4.69v-6.7c-.004-11.122 1.19-22.213 3.56-33.08 1.181-5.484 2.663-10.899 4.44-16.22l34.67-52 13.33-20 9.37-4.69c14.49-7.24 31.262-8.43 46.63-3.31h40l1.27 1.14 60.73 54.86z"/><path d="m144 96 16 16 16 32 16-8 24 8 56-56-16-16h-72z"/></g><path d="m256 72-72-48-80 64 8.63 11.507c7.953 10.604 22.996 12.753 33.6 4.8.417-.313.823-.639 1.219-.978l36.551-31.329 20.636 6.879c17.265 5.755 36.221 3.216 51.364-6.879z" fill="#ba8b5d"/><path d="m240 320h248v40h-248z" fill="#e04446"/><path d="m240 360h48v128h-48z" fill="#68737f"/><path d="m440 360h48v128h-48z" fill="#68737f"/><path d="m200 488h-112c-.004-5.499 1.105-10.941 3.26-16 1.388-3.301 3.211-6.402 5.42-9.22 5.62-7.208 13.492-12.327 22.36-14.54l32.96-8.24h40l5.33 32z" fill="#529ddf"/><path d="m458.41 293.98-1.98 4.94c-5.091 12.731-17.42 21.079-31.13 21.08h-129.3l-32-72h163.28c18.515-.003 33.527 15.003 33.53 33.518.001 4.269-.814 8.499-2.4 12.462z" fill="#68737f"/><path d="m429.11 292.22c-.05.19-.1.36-.14.51-.595 2.078-1.381 4.097-2.35 6.03l-.92 1.85c-5.954 11.876-18.096 19.378-31.38 19.39h-10.32c15.197 30.393 16.004 65.99 2.2 97.04l-10.2 22.96h-40l-14.64-146.4c-.87-8.748 1.571-17.504 6.84-24.54l5.28-7.03c5.844-7.792 14.665-12.802 24.35-13.83.24-.03.48-.05.73-.07.98-.09 1.98-.13 2.98-.13h33.7c19.374-.001 35.081 15.705 35.081 35.079.001 3.087-.407 6.16-1.211 9.141z" fill="#fdc5ca"/><path d="m384 488h-112c-.004-5.499 1.105-10.941 3.26-16 1.389-3.301 3.211-6.402 5.42-9.22 5.62-7.208 13.492-12.327 22.36-14.54l32.96-8.24h40l5.33 32z" fill="#529ddf"/><path d="m432 216 16 48-24 24-16-32-16-8-24 8-8-8 40-48-3.2-22.4c-2-14.001.427-28.276 6.94-40.83-.001-.011.002-.022.01-.03-22.938 3.266-45.835-6.215-59.75-24.74h-32c-10.17.003-19.236-6.41-22.62-16-.918-2.567-1.385-5.274-1.38-8-.003-14.71 8.31-28.157 21.47-34.73l2.33-1.17c5.393-2.698 11.34-4.102 17.37-4.1h14.75c10.296.001 20.169 4.091 27.45 11.37l4.63 4.63h26.02c18.995 0 37.009 8.437 49.17 23.03l20.81 24.97c-5.288 31.748-16.17 62.306-32.14 90.25z" fill="#fdc5ca"/><circle cx="64" cy="240" fill="#68737f" r="40"/><circle cx="96" cy="256" fill="#68737f" r="40"/><path d="m231.538 216.97-15.883-1.939c-1.279 10.331-5.963 19.941-13.313 27.313l11.314 11.314c9.873-9.903 16.164-22.812 17.882-36.688z"/><g><circle cx="96" cy="256" r="8"/><path d="m488 312h-29.924c2.389-3.082 4.335-6.483 5.782-10.104l1.978-4.945c7.205-17.98 1.004-38.553-14.938-49.556l-10.177-30.531 6.082-10.644c16.456-28.759 27.66-60.218 33.089-92.904.383-2.297-.255-4.648-1.746-6.437l-20.81-24.972c-13.663-16.437-33.938-25.934-55.312-25.907h-22.711l-2.282-2.283c-8.764-8.812-20.689-13.751-33.116-13.717h-14.748c-7.269.008-14.437 1.7-20.942 4.943l-2.337 1.168c-.846.423-1.672.874-2.483 1.341-16.542-4.707-34.248-3.028-49.609 4.706l-7.506 3.753-57.851-38.567c-2.899-1.933-6.715-1.768-9.436.409l-80 64c-3.374 2.7-3.995 7.59-1.402 11.047l8.631 11.507c5.319 7.069 13.318 11.63 22.109 12.609 1.148.126 2.303.19 3.458.189 6.039-.006 11.955-1.712 17.07-4.923l4.557 4.557 15.42 30.839c1.972 3.95 6.773 5.554 10.723 3.582.003-.002.007-.003.01-.005l9.051-4.525c-3.077 12.659-4.631 25.64-4.629 38.668v3.389l-2.344 2.343c-12.957 12.984-17.122 32.347-10.65 49.511-9.523.797-18.952 2.472-28.167 5.001-4.611-20.496-21.993-35.627-42.929-37.369-9.072-10.328-22.166-16.225-35.911-16.173-26.506-.004-47.997 21.479-48.001 47.985-.004 24.996 19.178 45.81 44.091 47.842 17.323 19.589 47.153 21.67 67.028 4.676l1.527.764c1.086.543 2.185 1.061 3.282 1.581-1.925 7.035-2.503 14.37-1.703 21.619l13.052 117.468-26.172 6.543c-21.821 5.428-37.13 25.036-37.104 47.522 0 4.418 3.582 8 8 8h112c4.418 0 8-3.582 8-8 0-.441-.036-.881-.109-1.315l-7.605-45.631 9.228-20.764c13.037-29.203 14.009-62.373 2.705-92.289h19.781v160c0 4.418 3.582 8 8 8h8v-128.001h32v64h16v-64h24.761l6.591 65.916-26.248 6.563c-21.821 5.427-37.13 25.035-37.104 47.521 0 4.418 3.582 8 8 8h112c4.418 0 8-3.582 8-8 0-.441-.036-.881-.109-1.315l-7.605-45.631 9.228-20.763c7.326-16.439 10.912-34.299 10.499-52.291h27.987v120c0 4.418 3.582 8 8 8h48c4.418 0 8-3.582 8-8v-168c0-4.418-3.582-8-8-8zm-36.944-39.742c2.352 6.034 2.325 12.736-.076 18.75l-1.978 4.944c-3.494 8.81-11.605 14.939-21.035 15.893 1.89-2.377 3.527-4.944 4.883-7.661l.921-1.842c2.683-5.387 4.211-11.276 4.486-17.288zm-320.971-171.246c-4.404-.465-8.413-2.751-11.055-6.305l-3.978-5.304 69.377-55.502 55.732 37.155c-10.664 3.759-22.28 3.841-32.996.232l-20.635-6.878c-2.666-.888-5.602-.313-7.736 1.516l-36.551 31.329c-3.35 2.895-7.758 4.258-12.158 3.757zm50.64 155.026 5.618 5.619c3.127 3.121 8.193 3.117 11.314-.011 3.117-3.123 3.117-8.18 0-11.304l-4.687-4.687c-11.96-11.96-11.961-31.351-.001-43.311 0 0 .001-.001.001-.001l4.687-4.687c1.5-1.501 2.343-3.535 2.343-5.657v-6.702c-.001-12.365 1.551-24.68 4.621-36.658l8.848 2.95c2.875.958 6.044.21 8.188-1.933l24-24-11.314-11.314-20.504 20.504-19.309-6.437c-2.013-.671-4.21-.515-6.108.435l-8.844 4.422-12.423-24.845c-.385-.769-.891-1.471-1.498-2.079l-4.353-4.353 24.463-20.968 16.339 5.447c19.601 6.602 41.158 3.715 58.331-7.813 3.67-2.439 4.668-7.392 2.229-11.062-.335-.504-.726-.968-1.166-1.383 8.387-4.104 17.714-5.907 27.027-5.224-5.571 7.905-8.55 17.344-8.527 27.014h16c-.04-11.689 6.57-22.384 17.042-27.577l2.337-1.168c4.283-2.135 9.002-3.249 13.788-3.255h14.748c8.182-.022 16.033 3.23 21.802 9.031l4.626 4.626c1.5 1.5 3.535 2.343 5.657 2.343h26.024c16.624-.02 32.393 7.366 43.021 20.149l18.439 22.129c-5.326 29.54-15.666 57.951-30.574 84.004l-7.856 13.749c-1.129 1.976-1.363 4.34-.644 6.499l14.437 43.309-12.655 12.656-11.036-22.073c-.774-1.548-2.029-2.803-3.577-3.577l-16-8c-1.898-.949-4.095-1.105-6.108-.435l-17.629 5.877 34.305-41.166c1.45-1.739 2.095-4.011 1.774-6.253l-3.2-22.399c-2.62-18.655 3.648-37.46 16.938-50.812l-11.314-11.314c-4.456 4.463-8.334 9.469-11.542 14.899-14.572 1.063-28.974-3.67-40.074-13.171 7.117-3.575 12.882-9.362 16.429-16.493l-14.311-7.156c-3.527 7.115-10.793 11.605-18.733 11.578h-22.114v16h8v17.373c.006 2.123-.838 4.16-2.344 5.656l-25.188 25.188c-2.881 2.887-7.473 3.141-10.654.59l-28.817-23.054-9.994 12.494 28.817 23.054c9.546 7.651 23.32 6.888 31.963-1.77l25.188-25.188c4.516-4.491 7.047-10.602 7.029-16.971v-13.192c12.653 12.791 29.668 20.336 47.643 21.126-3.403 10.796-4.347 22.217-2.763 33.425l2.697 18.879-35.324 42.39h-24.939l26.343-26.343-11.314-11.314-28.542 28.542-10.133-7.238 25.989-25.989-11.314-11.314-27.875 27.875-10.133-7.238 1.322-1.322c3.127-3.121 3.132-8.187.011-11.314s-8.187-3.132-11.314-.011c-.004.004-.007.007-.011.011l-7.846 7.846c-2.433 2.438-6.154 3.042-9.233 1.499l-37.686-18.843-7.156 14.311 26.836 13.418c-4.41 30.332-16.499 59.033-35.12 83.38-23.061-.586-45.732-6.079-66.504-16.112 3.163-5.498 5.196-11.572 5.981-17.867 12.046-3.646 24.529-5.643 37.11-5.939zm146.352 1.193-5.276 7.033c-6.487 8.632-9.486 19.39-8.4 30.133l1.76 17.603h-13.961l-24.889-56h51.745c-.33.407-.663.811-.979 1.231zm-72.746-37.6c5.895 1.668 12.205 1.015 17.632-1.827l31.073 22.196h-39.036c-.039 0-.077.007-.117.007-.252.003-.506.02-.761.048-.068.008-.136.013-.204.022-.045.006-.09.008-.136.015l-13.703 2.108c2.196-7.412 3.949-14.948 5.252-22.569zm-222.331 20.369c.029-17.702 14.402-32.029 32.104-32 4.943.008 9.817 1.159 14.241 3.363-.218.087-.432.182-.648.271-.206.085-37.18 14.684-28.108 56.645.029.108.048.219.077.327-10.822-5.431-17.656-16.499-17.666-28.606zm64 48c-17.673 0-32-14.327-32-32s14.327-32 32-32 32 14.327 32 32c.135 17.538-13.974 31.865-31.512 32-.163.001-.325.001-.488 0zm.977 192c2.946-11.826 12.182-21.058 24.009-24l31.998-8h32.239l5.334 32zm111.023-168h-8c-4.418 0-8 3.581-8 7.999 0 1.243.289 2.468.845 3.579 14.177 28.242 14.929 61.356 2.049 90.213l-8.093 18.209h-27.641l-13.033-117.301c-.5-4.539-.253-9.13.732-13.589 19.587 7.177 40.281 10.862 61.141 10.89 2.43 0 4.729-1.104 6.247-3.002 12.033-15.052 21.777-31.799 28.917-49.698l16.008-2.463 24.517 55.163zm64 40h-24v-24h68.761l2.4 24zm8.977 128c2.946-11.826 12.182-21.058 24.009-24l31.998-8h32.239l5.334 32zm97.917-66.207-8.093 18.207h-27.561l-13.92-139.194c-.682-6.753 1.203-13.515 5.28-18.941l5.276-7.033c4.165-5.571 10.322-9.317 17.185-10.455l5.281 5.281c2.143 2.143 5.313 2.891 8.188 1.933l20.855-6.952 10.651 5.325 14.808 29.615c.645 1.282 1.624 2.366 2.834 3.138-.074.157-.14.317-.218.472l-.921 1.843c-4.56 9.198-13.953 15.003-24.219 14.969h-5.378l-5.788-11.577-14.311 7.154 7.999 16c14.179 28.242 14.931 61.357 2.052 90.215zm17.315-85.793h83.791v24h-77.434c-1.294-8.196-3.425-16.238-6.357-24zm83.791 152h-32v-112h32z"/></g></g></svg>